<svg xmlns="http://www.w3.org/2000/svg" width="236" height="232" viewBox="0 0 236 232" fill="none"><g opacity="0.5"><circle cx="118" cy="115" r="85.75" stroke="white" stroke-width="0.5"></circle><path d="M112 232L112 0" stroke="white" stroke-width="0.5"></path><path d="M2.5 105.5L234.5 105.5" stroke="white" stroke-width="0.5"></path><path d="M34 217L205.041 24.5215" stroke="white" stroke-width="0.5"></path><path d="M13.6672 174.736L229.232 33.9004" stroke="white" stroke-width="0.5"></path><path d="M15.6984 39.7091L233.68 176.775" stroke="white" stroke-width="0.5"></path><path d="M30.9442 24.4212L199.379 219.185" stroke="white" stroke-width="0.5"></path><path d="M125 232L125 0" stroke="white" stroke-width="0.5"></path><path d="M154 232L154 0" stroke="white" stroke-width="0.5"></path><path d="M83 232L83 0" stroke="white" stroke-width="0.5"></path><path d="M2.5 122.5L234.5 122.5" stroke="white" stroke-width="0.5"></path><path d="M48 230L217.769 37.793" stroke="white" stroke-width="0.5"></path><path d="M20.7642 186.954L235.03 46.0469" stroke="white" stroke-width="0.5"></path><path d="M7.55919 51.2595L225.063 187.115" stroke="white" stroke-width="0.5"></path><path d="M16.2236 36.5991L184.556 230.065" stroke="white" stroke-width="0.5"></path><path d="M-4.76837e-07 135L232 135" stroke="white" stroke-width="0.5"></path><path d="M-4.76837e-07 93L232 93" stroke="white" stroke-width="0.5"></path><circle cx="117.5" cy="115.5" r="95.25" stroke="white" stroke-width="0.5"></circle></g><path fill-rule="evenodd" clip-rule="evenodd" d="M198.506 105H37.494C34.4644 105 32 107.361 32 110.263V117.737C32 120.639 34.4644 123 37.494 123H198.506C201.536 123 204 120.639 204 117.737V110.263C204 107.361 201.536 105 198.506 105" fill="white"></path><path fill-rule="evenodd" clip-rule="evenodd" d="M127.575 137.075C126.529 135.897 125.008 135.221 123.403 135.221H109.458C107.853 135.221 106.332 135.897 105.286 137.076L62.8859 184.651C61.9285 185.729 61.4628 187.103 61.5737 188.52C61.6846 189.937 62.3598 191.228 63.4744 192.153L69.3982 197.076C70.3954 197.905 71.6672 198.361 72.9788 198.361C74.5866 198.361 76.1082 197.685 77.1549 196.506L113.199 156.09C114.01 155.177 115.188 154.654 116.431 154.654C117.674 154.654 118.852 155.177 119.662 156.09L155.739 196.701C156.785 197.878 158.307 198.555 159.914 198.555C161.226 198.555 162.498 198.098 163.495 197.27L169.419 192.347C170.533 191.422 171.208 190.131 171.319 188.714C171.43 187.297 170.964 185.923 170.007 184.844L127.575 137.075" fill="white"></path><path fill-rule="evenodd" clip-rule="evenodd" d="M121.175 181.442H115.933C113.883 181.442 112.221 183.164 112.221 185.287V207.153C112.221 209.276 113.883 210.998 115.933 210.998H121.175C123.225 210.998 124.887 209.276 124.887 207.153V185.287C124.887 183.164 123.225 181.442 121.175 181.442" fill="white"></path><path fill-rule="evenodd" clip-rule="evenodd" d="M115.918 41.1111H121.2C123.24 41.1111 124.892 39.2918 124.892 37.0474V24.0637C124.892 21.8193 123.24 20 121.2 20H115.918C113.879 20 112.226 21.8193 112.226 24.0637V37.0474C112.226 39.2918 113.879 41.1111 115.918 41.1111" fill="#FF316D"></path><path fill-rule="evenodd" clip-rule="evenodd" d="M80.961 142.647L77.6957 137.988C76.4138 136.16 73.8265 135.67 71.9145 136.896L45.5174 153.816C43.6027 155.043 43.0915 157.524 44.3767 159.355L47.6458 164.012C48.9283 165.838 51.5145 166.326 53.4253 165.101L79.8186 148.183C81.7322 146.957 82.244 144.478 80.961 142.647" fill="#00B4DF"></path><path fill-rule="evenodd" clip-rule="evenodd" d="M192.597 150.816L166.2 133.896C164.288 132.671 161.7 133.159 160.419 134.988L157.153 139.647C155.87 141.477 156.382 143.957 158.295 145.183L184.689 162.101C186.6 163.326 189.186 162.838 190.469 161.012L193.737 156.355C195.023 154.524 194.512 152.043 192.597 150.816" fill="#FFDC18"></path><path fill-rule="evenodd" clip-rule="evenodd" d="M158.42 91.2327C159.702 93.0599 162.289 93.5476 164.199 92.3229L190.593 75.405C192.507 74.1782 193.018 71.699 191.735 69.8687L188.47 65.2097C187.189 63.3809 184.601 62.8922 182.689 64.1175L156.291 81.0374C154.377 82.2647 153.866 84.746 155.151 86.5763L158.42 91.2327" fill="white"></path><path fill-rule="evenodd" clip-rule="evenodd" d="M46.5169 75.4055L72.9108 92.3228C74.8217 93.5476 77.4079 93.0599 78.6903 91.2332L81.9595 86.5768C83.2441 84.7459 82.7334 82.2646 80.8193 81.0373L54.4216 64.1178C52.5096 62.892 49.9223 63.3808 48.6404 65.2101L45.3751 69.8686C44.0921 71.6994 44.6033 74.1786 46.5169 75.4055" fill="white"></path><path fill-rule="evenodd" clip-rule="evenodd" d="M118.445 61.4663C124.204 61.4663 128.872 66.1346 128.872 71.8931C128.872 77.6516 124.204 82.3205 118.445 82.3205C112.687 82.3205 108.019 77.6516 108.019 71.8931C108.019 66.1346 112.687 61.4663 118.445 61.4663ZM118.443 97.2243C132.435 97.2243 143.777 85.8823 143.777 71.891C143.777 57.8996 132.435 46.5576 118.443 46.5576C104.453 46.5576 93.1104 57.8996 93.1104 71.891C93.1104 85.8823 104.453 97.2243 118.443 97.2243Z" fill="white"></path></svg>